<svg width="483" height="483" viewBox="0 0 483 483" fill="none" xmlns="http://www.w3.org/2000/svg">
<rect width="483" height="483" fill="#D4543A"/>
<path d="M151.567 251.68C152.47 259.739 154.429 267.479 157.306 274.756C142.277 285.922 129.098 296.627 118.201 306.457C109.695 314.13 102.925 320.964 97.8457 326.8C105.392 325.092 114.617 322.369 125.404 318.514C139.193 313.588 154.827 307.071 171.738 299.152C176.783 305.25 182.611 310.675 189.069 315.273C124.854 346.256 75.1705 359.475 66.748 345.38C58.3095 331.255 93.6505 293.647 151.567 251.68ZM292.905 167.008C358.29 135.187 409.121 121.454 417.648 135.726L417.778 135.953C425.779 150.372 389.827 188.324 331.336 230.5C330.365 222.489 328.349 214.802 325.426 207.578C341.146 195.967 354.898 184.839 366.194 174.648C374.7 166.975 381.471 160.142 386.55 154.306C379.004 156.014 369.779 158.737 358.991 162.592C344.623 167.725 328.252 174.585 310.519 182.96C305.378 176.905 299.455 171.536 292.905 167.008Z" fill="#F5F2ED"/>
<mask id="mask0_2241_18" style="mask-type:alpha" maskUnits="userSpaceOnUse" x="65" y="130" width="354" height="222">
<path d="M227.091 215.27C275.117 186.576 320.642 164.612 355.289 152.233C372.7 146.012 386.82 142.411 396.892 141.391C401.96 140.878 405.36 141.091 407.392 141.567C407.514 141.595 407.626 141.624 407.73 141.652C407.705 141.756 407.677 141.869 407.645 141.989C407.101 144.005 405.678 147.1 402.824 151.32C397.153 159.706 387.291 170.433 373.562 182.817C346.243 207.461 305.329 237.142 257.303 265.836C209.278 294.53 163.753 316.494 129.106 328.873C111.695 335.094 97.5762 338.695 87.5043 339.715C82.4358 340.228 79.0363 340.015 77.0037 339.539C76.8819 339.51 76.7697 339.481 76.6662 339.454C76.6908 339.349 76.7187 339.237 76.7512 339.116C77.295 337.1 78.7189 334.007 81.5724 329.787C87.2429 321.4 97.1045 310.673 110.833 298.289C138.152 273.645 179.066 243.964 227.091 215.27Z" stroke="#F9F9F9" stroke-width="22"/>
</mask>
<g mask="url(#mask0_2241_18)">
<path d="M58.0947 342.5L422.566 132.232L452.049 183.337L87.5779 393.605L58.0947 342.5Z" fill="#F5F2ED"/>
</g>
<circle cx="242" cy="241" r="101.5" stroke="#F5F2ED" stroke-width="39"/>
</svg>
