<svg width="1228" height="1228" viewBox="0 0 1228 1228" fill="none" xmlns="http://www.w3.org/2000/svg">
<rect width="1228" height="1228" fill="#F5F2ED"/>
<path d="M933.683 891V786.72H834.143C858.37 763.547 877.857 735.897 892.603 703.77C906.823 671.643 913.933 635.567 913.933 595.54C913.933 556.04 906.56 519.963 891.813 487.31C876.54 454.657 855.21 426.48 827.823 402.78C800.437 379.08 768.573 360.91 732.233 348.27C695.367 335.103 655.867 328.52 613.733 328.52C570.547 328.52 530.783 335.103 494.443 348.27C458.103 360.91 426.503 379.08 399.643 402.78C372.257 426.48 350.927 454.92 335.653 488.1C320.38 520.753 312.743 556.567 312.743 595.54C312.743 635.567 320.117 671.643 334.863 703.77C349.083 735.897 368.57 763.547 393.323 786.72H292.993V891H558.433V793.83C521.04 774.343 492.337 748.537 472.323 716.41C451.783 683.757 441.513 647.943 441.513 608.97C441.513 582.637 445.727 558.937 454.153 537.87C462.58 516.803 474.43 498.897 489.703 484.15C504.977 468.877 523.147 457.29 544.213 449.39C565.28 441.49 588.453 437.54 613.733 437.54C638.487 437.54 661.397 441.49 682.463 449.39C703.53 457.29 721.7 468.877 736.973 484.15C752.247 498.897 764.36 516.803 773.313 537.87C781.74 558.937 785.953 582.637 785.953 608.97C785.953 647.943 775.683 684.02 755.143 717.2C734.603 749.853 705.637 775.397 668.243 793.83V891H933.683Z" fill="#D4543A"/>
</svg>
